/* XPM */
static char * 707_xpm[] = {
"64 64 144 2",
"  	c #D9D9D9",
". 	c #D7D7D7",
"+ 	c #D8D8D8",
"@ 	c #BCBCBC",
"# 	c #C5C5C5",
"$ 	c #CFCFCF",
"% 	c #D2D2D2",
"& 	c #D5D5D5",
"* 	c #626262",
"= 	c #868686",
"- 	c #6C6C6C",
"; 	c #909090",
"> 	c #BDBDBD",
", 	c #999999",
"' 	c #363636",
") 	c #484848",
"! 	c #AFAFAF",
"~ 	c #CBCBCB",
"{ 	c #202020",
"] 	c #5E5E5E",
"^ 	c #CCCCCC",
"/ 	c #8C8C8C",
"( 	c #595959",
"_ 	c #757575",
": 	c #A2A2A2",
"< 	c #A7A7A7",
"[ 	c #3B3B3B",
"} 	c #272727",
"| 	c #2A2A2A",
"1 	c #4C4C4C",
"2 	c #D1D1D1",
"3 	c #575757",
"4 	c #2E2E2E",
"5 	c #7F7F7F",
"6 	c #CACACA",
"7 	c #CECECE",
"8 	c #888888",
"9 	c #222222",
"0 	c #242424",
"a 	c #9F9F9F",
"b 	c #383838",
"c 	c #262626",
"d 	c #303030",
"e 	c #232323",
"f 	c #505050",
"g 	c #828282",
"h 	c #676767",
"i 	c #959595",
"j 	c #2C2C2C",
"k 	c #BABABA",
"l 	c #444444",
"m 	c #616161",
"n 	c #C0C0C0",
"o 	c #535353",
"p 	c #A6A6A6",
"q 	c #858585",
"r 	c #CDCDCD",
"s 	c #5C5C5C",
"t 	c #6A6A6A",
"u 	c #808080",
"v 	c #353535",
"w 	c #ADADAD",
"x 	c #C8C8C8",
"y 	c #4D4D4D",
"z 	c #AEAEAE",
"A 	c #696969",
"B 	c #494949",
"C 	c #B9B9B9",
"D 	c #252525",
"E 	c #A1A1A1",
"F 	c #797979",
"G 	c #8E8E8E",
"H 	c #7C7C7C",
"I 	c #ABABAB",
"J 	c #2F2F2F",
"K 	c #404040",
"L 	c #323232",
"M 	c #A3A3A3",
"N 	c #A0A0A0",
"O 	c #4B4B4B",
"P 	c #C2C2C2",
"Q 	c #7E7E7E",
"R 	c #6D6D6D",
"S 	c #3C3C3C",
"T 	c #C6C6C6",
"U 	c #B3B3B3",
"V 	c #292929",
"W 	c #ACACAC",
"X 	c #9B9B9B",
"Y 	c #898989",
"Z 	c #333333",
"` 	c #777777",
" .	c #B8B8B8",
"..	c #313131",
"+.	c #737373",
"@.	c #C4C4C4",
"#.	c #4F4F4F",
"$.	c #848484",
"%.	c #D6D6D6",
"&.	c #343434",
"*.	c #282828",
"=.	c #B1B1B1",
"-.	c #939393",
";.	c #9A9A9A",
">.	c #393939",
",.	c #212121",
"'.	c #838383",
").	c #5F5F5F",
"!.	c #6F6F6F",
"~.	c #8A8A8A",
"{.	c #D0D0D0",
"].	c #464646",
"^.	c #767676",
"/.	c #555555",
"(.	c #9C9C9C",
"_.	c #7B7B7B",
":.	c #5B5B5B",
"<.	c #373737",
"[.	c #4E4E4E",
"}.	c #4A4A4A",
"|.	c #D4D4D4",
"1.	c #C7C7C7",
"2.	c #9D9D9D",
"3.	c #515151",
"4.	c #8F8F8F",
"5.	c #787878",
"6.	c #424242",
"7.	c #B7B7B7",
"8.	c #A9A9A9",
"9.	c #919191",
"0.	c #A5A5A5",
"a.	c #3A3A3A",
"b.	c #474747",
"c.	c #C9C9C9",
"d.	c #434343",
"e.	c #929292",
"f.	c #D3D3D3",
"g.	c #666666",
"h.	c #565656",
"i.	c #525252",
"j.	c #686868",
"k.	c #969696",
"l.	c #5D5D5D",
"m.	c #818181",
"                                                                                                                                ",
"                                                                                                                                ",
"                                                                                                                                ",
"                                                                                                                                ",
"                                                                                                                                ",
"                                                                                                                                ",
"                                                                                                                                ",
"                                                                                                                                ",
"                                                                                                                                ",
"                                                                                                                                ",
"    . . . . . . . . . . . . . . . . . . .               + . @ @ @ @ # .                 . . . . . . . . . . . . . . . . . . .   ",
"    $ $ $ $ $ $ $ $ $ $ $ $ $ $ $ $ $ $ %               & $ * * * * = $                 $ $ $ $ $ $ $ $ $ $ $ $ $ $ $ $ $ $ %   ",
"    - - - - - - - - - - - - - - - - - - ;             > , - ' ' ' ' ) - ! ~             - - - - - - - - - - - - - - - - - - ;   ",
"    { { { { { { { { { { { { { { { { { { ]           ^ / ( { { { { { { { _ : .           { { { { { { { { { { { { { { { { { { ]   ",
"    { { { { { { { { { { { { { { { { { { ]           < [ } { { { { { { { | 1 2           { { { { { { { { { { { { { { { { { { ]   ",
"    { { { { { { { { { { { { { { { { { { ]         @ 3 } { { { { { { { { { 4 5 6         { { { { { { { { { { { { { { { { { { ]   ",
"    { { { { { { { { { { { { { { { { { { ]       7 8 { { { { 9 0 0 9 { { { { [ a         { { { { { { { { { { { { { { { { { { ]   ",
"    { { { { { { { { { { { { { { { { { { ]       ! b { { { { c d d c { { { { e )         { { { { { { { { { { { { { { { { { { ]   ",
"    f f f f f f f f f f f d { { { { { { ]       g c { { { { h i i h { { { { { j k       f f f f f f f f f f f d { { { { { { ]   ",
"    / / / / / / / / / / / l { { { { { { m     n o { { { 9 [ p     p [ 9 { { { { q r     / / / / / / / / / / / l { { { { { { m   ",
"    % % % % % % % % % % % s { { { { { { t     u 0 { { { } u &     & u } { { { { v w     % % % % % % % % % % % s { { { { { { t   ",
"                        x y { { { { { { z     A { { { { B C         C B { { { { D E                         x y { { { { { { z   ",
"                        ! b { { { { { [     ^ f { { { { F             F { { { { { u                         ! b { { { { { [     ",
"                        G 9 { { { { { H     I J { { { { k             k { { { { { K                         G 9 { { { { { H     ",
"                        ) { { { { { L M     N D { { { { $             $ { { { { { |                         ) { { { { { L M     ",
"                      @ { { { { { { O P     Q { { { { D                 D { { { { { @                     @ { { { { { { O P     ",
"                      F { { { { { { R +     S { { { { d                 d { { { { { F                     F { { { { { { R +     ",
"                    T o { { { { { { U       V { { { { _                 _ { { { { { h                   T o { { { { { { U       ",
"                    W ' { { { { { c         { { { { { X                 X { { { { { ]                   W ' { { { { { c         ",
"                    Y { { { { { { Z         { { { { { X                 X { { { { { ]                   Y { { { { { { Z         ",
"                    l { { { { { { `         { { { { { X                 X { { { { { ]                   l { { { { { { `         ",
"                   .{ { { { { { ..W         { { { { { X                 X { { { { { ]                  .{ { { { { { ..W         ",
"                  +.{ { { { { { o $         { { { { { X                 X { { { { { ]                 +.{ { { { { { o $         ",
"                @.#.{ { { { { { $.%.        { { { { { X                 X { { { { { ]               @.#.{ { { { { { $.%.        ",
"                ! &.{ { { { { *.=.          { { { { { -.                -.{ { { { { ]               ! &.{ { { { { *.=.          ",
"                ;.{ { { { { { >.            ,.{ { { { '.                '.{ { { { { ).              ;.{ { { { { { >.            ",
"                !.{ { { { { { H             y { { { { K                 K { { { { { ~.              !.{ { { { { { H             ",
"              {.].{ { { { { Z z             ^.{ { { { {                 { { { { { { U             {.].{ { { { { Z z             ",
"              > { { { { { { /.{.            (.,.{ { { { .             . { { { { { 9               > { { { { { { /.{.            ",
"              _.{ { { { { { :.%.            U <.{ { { { I             I { { { { { [.              _.{ { { { { { :.%.            ",
"            # }.{ { { { { { =               x 1 { { { { H |.        |.H { { { { { `             # }.{ { { { { { =               ",
"            a *.{ { { { { e ~                 m { { { { [.1.        1.[.{ { { { 9 2.            a *.{ { { { { e ~               ",
"            - 9 { { { { { 3.&                 4.{ { { { 4 5.        5.4 { { { { b U             - 9 { { { { { 3.&               ",
"          7 6.{ { { { { D 5                   7.O { { { { 6.8.x x 8.6.{ { { { { 5.x           7 6.{ { { { { D 5                 ",
"          7.{ { { { { { ..w                     9.9 { { { { ( 0.0.( { { { { { 0 r             7.{ { { { { { ..w                 ",
"          ` { { { { { { 3.r                     =.a.{ { { { d ].].d { { { { { o %.            ` { { { { { { 3.r                 ",
"        P b.{ { { { { { /                       c._.j { { { { { { { { { { { d.e.            P b.{ { { { { { /                   ",
"        X c { { { { { { $                         $ ) e { { { { { { { { { c Q f.            X c { { { { { { $                   ",
"        g.9 { { { { { { %.                        %.a [ { { { { { { { { { h.n +             g.9 { { { { { { %.                  ",
"        i.&.&.&.&.&.&.3                             6 5 3 &.{ { { { } &.j.k.                i.&.&.&.&.&.&.3                     ",
"        l.l.l.l.l.l.l.<                               2 < l.| | | | [ l.^ |.                l.l.l.l.l.l.l.<                     ",
"        C C C C C C C ^                               . ^ C _ Q m.m.i > %.+                 > > > > > > > 7                     ",
"                                                                                                                                ",
"                                                                                                                                ",
"                                                                                                                                ",
"                                                                                                                                ",
"                                                                                                                                ",
"                                                                                                                                ",
"                                                                                                                                ",
"                                                                                                                                ",
"                                                                                                                                ",
"                                                                                                                                ",
"                                                                                                                                ",
"                                                                                                                                "};
